<svg width="490" height="33" viewBox="0 0 490 33" fill="none" xmlns="http://www.w3.org/2000/svg">
<g id="squiggly-mega">
<g id="Group 2">
<g id="Group 1">
<path id="line1" d="M241 19.1181C244.5 14.6181 251.4 12.7181 257 19.1181C262.6 25.5181 267.765 20.1181 269 19.1181C271.583 17.0273 280.9 12.3181 286.5 19.1181C292.1 25.9181 298 21.6181 301 19.1181C303.637 16.9204 310.4 12.7181 316 19.1181C321.6 25.5181 327.5 20.6181 329 19.1181C330.5 17.6181 337.9 12.3181 343.5 19.1181C349.1 25.9181 354.833 21.9514 357 19.1181" stroke="#F17341" stroke-width="3" stroke-linecap="round"/>
<path id="line1_2" d="M357 19.1181C360.5 14.6181 367.4 12.7181 373 19.1181C378.6 25.5181 383.765 20.1181 385 19.1181C387.583 17.0273 396.9 12.3181 402.5 19.1181C408.1 25.9181 414 21.6181 417 19.1181C419.637 16.9204 426.4 12.7181 432 19.1181C437.6 25.5181 443.5 20.6181 445 19.1181C446.5 17.6181 453.9 12.3181 459.5 19.1181C465.1 25.9181 470.833 21.9514 473 19.1181" stroke="#F17341" stroke-width="3" stroke-linecap="round"/>
</g>
<path id="line1_3" d="M9 19.1181C12.5 14.6181 19.4 12.7181 25 19.1181C30.6 25.5181 35.7647 20.1181 37 19.1181C39.5828 17.0273 48.9 12.3181 54.5 19.1181C60.1 25.9181 66 21.6181 69 19.1181C71.6373 16.9204 78.4 12.7181 84 19.1181C89.6 25.5181 95.5 20.6181 97 19.1181C98.5 17.6181 105.9 12.3181 111.5 19.1181C117.1 25.9181 122.833 21.9514 125 19.1181" stroke="#F17341" stroke-width="3" stroke-linecap="round"/>
<path id="line1_4" d="M125 19.1181C128.5 14.6181 135.4 12.7181 141 19.1181C146.6 25.5181 151.765 20.1181 153 19.1181C155.583 17.0273 164.9 12.3181 170.5 19.1181C176.1 25.9181 182 21.6181 185 19.1181C187.637 16.9204 194.4 12.7181 200 19.1181C205.6 25.5181 211.5 20.6181 213 19.1181C214.5 17.6181 221.9 12.3181 227.5 19.1181C233.1 25.9181 238.833 21.9514 241 19.1181" stroke="#F17341" stroke-width="3" stroke-linecap="round"/>
</g>
</g>
</svg>
